<svg>
<metadata>
Created by FontForge 20090914 at Thu Aug 31 10:56:47 2017 By www-data Copyright Â© 1997, 2001, Berthold LLC. All rights reserved. Akzidenz-Grotesk is a trademark of Berthold Types Limited.
</metadata>
<defs>
<font id="AkzidenzGroteskBQ-BdCnd" horiz-adv-x="396">
<font-face font-family="Akzidenz-Grotesk BQ" font-weight="700" font-stretch="condensed" units-per-em="1000" panose-1="0 0 0 0 0 0 0 0 0 0" ascent="800" descent="-200" x-height="512" cap-height="706" bbox="-51 -221 974 919" underline-thickness="92" underline-position="-130" stemh="20" stemv="118" unicode-range="U+0020-U+2122"/>
<missing-glyph horiz-adv-x="500"/>
<glyph glyph-name=".notdef" horiz-adv-x="500"/>
<glyph glyph-name="space" unicode=" " horiz-adv-x="229"/>
<glyph glyph-name="exclam" unicode="!" horiz-adv-x="229" d="M191 393l-19 -203h-78l-16 197v319h113v-313zM194 0h-119v132h119v-132z"/>
<glyph glyph-name="quotedbl" unicode=""" horiz-adv-x="300" d="M276 741l-34 -289h-33l-38 289h105zM129 741l-34 -289h-33l-37 289h104z"/>
<glyph glyph-name="numbersign" unicode="#" horiz-adv-x="537" d="M522 405h-109l-9 -89h106v-96h-114l-21 -220h-95l20 220h-71l-21 -220h-96l20 220h-117v96h126l8 89h-122v96h132l19 205h96l-19 -205h71l19 205h96l-20 -205h101v-96zM317 405h-72l-7 -89h71z"/>
<glyph glyph-name="dollar" unicode="$" horiz-adv-x="417" d="M384 176c0 -80 -22 -119 -51 -145c-37 -32 -76 -35 -94 -37v-94h-51v94c-38 2 -72 9 -102 35c-23 20 -32 42 -36 53c-7 19 -10 36 -10 74v78h111v-79c0 -6 0 -19 5 -33c12 -31 46 -33 55 -33c18 0 30 6 35 9c24 17 25 51 25 76c0 48 -16 65 -32 81l-141 144 c-8 8 -18 18 -32 38c-14 21 -29 45 -29 100c0 10 0 74 32 114c38 48 104 50 119 51v81h51v-81c15 -2 49 -5 81 -31c34 -27 51 -63 51 -146c0 -15 -1 -30 -1 -45h-112v66c0 19 0 39 -14 53s-32 14 -38 14c-30 0 -43 -18 -48 -28c-2 -4 -5 -15 -6 -28c0 -6 -1 -12 -1 -19 c0 -34 15 -47 26 -59l149 -155c12 -12 20 -21 30 -35c25 -36 28 -69 28 -113z"/>
<glyph glyph-name="percent" unicode="%" horiz-adv-x="708" d="M683 102c0 -27 -5 -49 -23 -71c-31 -38 -82 -37 -95 -37s-72 -3 -104 40c-3 3 -9 12 -13 23s-6 24 -6 47v226c0 19 1 34 7 52c10 30 42 65 113 65c12 0 90 1 113 -60c5 -12 8 -25 8 -50v-235zM519 692l-265 -737l-64 22l266 738zM266 326c0 -12 0 -45 -24 -73 c-32 -36 -79 -35 -94 -35c-13 0 -96 -3 -117 66c-6 18 -5 39 -5 44v226c0 19 0 33 6 51c17 50 66 66 113 66c11 0 89 0 113 -59c6 -16 8 -35 8 -51v-235zM601 101v237c0 15 4 47 -39 47s-40 -34 -40 -48v-241c0 -17 3 -29 20 -35c8 -3 19 -3 20 -3c5 0 14 0 24 5 c12 7 15 14 15 38zM185 325v237c0 15 4 47 -39 47s-40 -34 -40 -48v-241c0 -17 3 -29 20 -35c8 -3 19 -3 20 -3c5 0 14 0 24 5c12 7 15 14 15 38z"/>
<glyph glyph-name="ampersand" unicode="&" horiz-adv-x="521" d="M506 82l-1 -85c-8 -1 -31 -6 -56 -6c-51 0 -76 21 -92 37c-48 -26 -80 -40 -134 -40c-13 0 -45 1 -78 13c-78 29 -118 101 -118 181c0 39 8 64 14 79c27 75 94 132 109 146c-5 8 -10 17 -14 26c-5 10 -38 79 -38 138c0 53 26 110 77 134c28 13 59 13 69 13 c9 0 37 0 63 -11c26 -12 73 -43 73 -116c0 -86 -52 -140 -103 -201l92 -180l6 15c8 20 14 47 15 95h103c-6 -114 -32 -167 -64 -212c16 -18 31 -27 77 -26zM275 590c0 30 -22 37 -33 37c-26 -1 -37 -28 -37 -50c0 -33 22 -77 24 -81l27 41c16 26 19 37 19 53zM299 115 l-103 187c-28 -36 -52 -70 -52 -119c0 -5 0 -21 6 -36c12 -32 46 -53 80 -53c15 0 39 3 69 21z"/>
<glyph glyph-name="quotesingle" unicode="'" horiz-adv-x="154" d="M129 741l-34 -289h-33l-37 289h104z"/>
<glyph glyph-name="parenleft" unicode="(" horiz-adv-x="292" d="M272 -182c-34 12 -65 28 -95 49c-80 56 -123 124 -123 222v411c0 138 102 223 218 274v-93c-80 -45 -99 -116 -99 -201v-397c0 -84 33 -129 99 -178v-87z"/>
<glyph glyph-name="parenright" unicode=")" horiz-adv-x="292" d="M238 91c0 -138 -102 -222 -218 -273v93c81 44 99 116 99 201v397c0 89 -35 125 -99 178v87c34 -11 66 -29 95 -50c80 -58 123 -122 123 -222v-411z"/>
<glyph glyph-name="asterisk" unicode="*" horiz-adv-x="378" d="M358 557l-98 -34l60 -79l-68 -53l-64 83l-58 -83l-70 51l56 80l-96 28l25 83l98 -28v103h87v-104l100 34z"/>
<glyph glyph-name="plus" unicode="+" horiz-adv-x="558" d="M476 249h-137v-158h-119v158h-138v100h138v157h119v-157h137v-100z"/>
<glyph glyph-name="comma" unicode="," horiz-adv-x="187" d="M153 0l-83 -135h-44l68 135h-58v129h117v-129z"/>
<glyph glyph-name="hyphen" unicode="-" horiz-adv-x="314" d="M281 242h-248v99h248v-99z"/>
<glyph glyph-name="period" unicode="." horiz-adv-x="187" d="M152 0h-117v129h117v-129z"/>
<glyph glyph-name="slash" unicode="/" horiz-adv-x="250" d="M240 706l-129 -706h-99l130 706h98z"/>
<glyph glyph-name="zero" unicode="0" d="M366 152c0 -20 -1 -34 -6 -53c-6 -25 -27 -81 -97 -101c-12 -3 -32 -7 -62 -7c-47 0 -96 7 -132 42c-8 8 -21 23 -30 49c-6 19 -10 34 -10 73v344c0 9 1 18 1 28c2 34 7 61 28 89c44 58 119 58 138 58c101 0 144 -46 160 -89c7 -19 10 -36 10 -76v-357zM251 151v361 c0 2 1 29 -4 44c-7 23 -26 31 -48 31c-60 -1 -54 -56 -54 -70v-374c0 -14 -2 -62 51 -62c17 0 28 5 34 9c21 15 21 39 21 61z"/>
<glyph glyph-name="one" unicode="1" d="M265 0h-117v507c-5 -4 -10 -8 -16 -12c-13 -8 -43 -22 -84 -29l1 92c5 2 13 3 24 8c11 4 52 25 80 54c12 13 17 20 34 45h78v-665z"/>
<glyph glyph-name="two" unicode="2" d="M371 0h-350v16c0 60 7 112 34 168c26 53 61 86 103 127c10 10 21 20 31 31c19 19 41 39 52 64c7 15 8 29 8 45v76c0 19 -3 37 -17 49c-12 9 -27 9 -32 9c-3 0 -18 0 -29 -5c-24 -12 -27 -36 -27 -59v-79h-109v81c0 40 5 73 32 104c44 48 112 47 129 47 c14 0 121 2 155 -78c10 -25 13 -61 13 -66v-88c0 -34 -3 -46 -9 -63c-13 -40 -56 -82 -122 -147c-28 -28 -65 -61 -78 -101c-3 -11 -4 -13 -5 -31h221v-100z"/>
<glyph glyph-name="three" unicode="3" d="M367 143c0 -32 -4 -47 -9 -61c-16 -40 -61 -91 -159 -91c-17 0 -123 1 -159 84c-6 14 -11 24 -11 53v81h115v-71c0 -14 1 -24 3 -29c6 -15 21 -29 54 -29c5 0 17 0 29 7c18 11 21 28 21 47v100c0 24 1 48 -20 66c-19 16 -44 16 -66 16h-24v78h24c6 0 45 -1 66 21 c17 17 16 39 16 61v50c0 7 5 44 -29 54c-9 3 -20 4 -22 4c-7 0 -41 -2 -49 -32c-2 -7 -2 -16 -2 -17v-69h-110v83c0 8 1 33 13 56c28 55 98 69 153 69c89 0 132 -38 149 -75c6 -13 13 -32 13 -62v-75c0 -27 0 -50 -20 -71c-21 -23 -47 -27 -75 -32c27 -4 66 -10 84 -36 c15 -22 15 -54 15 -79v-101z"/>
<glyph glyph-name="four" unicode="4" d="M371 126h-40v-126h-107v126h-203v93l171 449h139v-449h40v-93zM231 550l-112 -331h105z"/>
<glyph glyph-name="five" unicode="5" d="M367 155c0 -36 -4 -52 -9 -70c-29 -95 -134 -94 -157 -94c-10 0 -77 -1 -121 31c-50 36 -52 100 -52 116v69h115v-68c0 -4 -1 -14 2 -25c4 -13 16 -32 49 -32c31 0 45 15 50 27c4 9 5 19 5 28v165c0 24 1 52 -23 66c-6 4 -14 8 -30 8c-13 0 -42 -5 -56 -38 c-4 -9 -6 -13 -8 -29h-92l7 356h310v-100h-216l-2 -136c15 11 46 35 98 35c81 -1 113 -53 123 -83c5 -15 7 -28 7 -61v-165z"/>
<glyph glyph-name="six" unicode="6" d="M367 145c0 -6 1 -42 -9 -68c-16 -42 -60 -86 -158 -86c-16 0 -87 0 -132 45c-19 19 -26 37 -29 46c-10 26 -8 58 -8 65v383c0 13 1 48 21 80c31 51 97 64 152 64c45 0 111 -13 138 -55c13 -21 20 -40 20 -84v-46h-110v36c0 19 0 43 -21 54c-12 6 -26 6 -30 6 c-58 0 -56 -47 -56 -65v-131c17 14 49 41 106 41c78 0 104 -52 111 -80c3 -12 5 -25 5 -50v-155zM253 142v121c0 35 -4 50 -19 61c-5 4 -16 10 -32 10c-5 0 -19 -1 -32 -8c-24 -14 -25 -34 -25 -58v-109c0 -22 0 -46 17 -63c15 -14 32 -14 40 -14c30 0 42 19 46 29 c3 7 5 16 5 31z"/>
<glyph glyph-name="seven" unicode="7" d="M379 566c-9 -15 -18 -30 -26 -46c-19 -34 -57 -112 -86 -212c-12 -40 -50 -172 -49 -308h-125c1 41 5 77 23 157c38 168 101 304 129 359c9 18 19 34 28 51h-156v-78h-97v176h359v-99z"/>
<glyph glyph-name="eight" unicode="8" d="M365 153c0 -47 -4 -85 -41 -119c-47 -43 -103 -43 -125 -43c-94 0 -140 43 -158 82c-7 17 -13 34 -13 70v85c0 25 1 35 4 48c10 46 35 60 73 79c-1 1 -21 10 -33 19c-37 29 -35 73 -35 88v70c0 35 4 64 26 92c9 12 21 21 34 29c38 21 91 21 101 21c90 0 134 -37 150 -76 c7 -16 10 -34 10 -70v-58c0 -38 -2 -51 -12 -69s-23 -28 -58 -46c25 -11 37 -18 47 -27c26 -22 30 -53 30 -85v-90zM248 459v70c0 20 -3 37 -22 47c-12 7 -23 7 -28 7c-21 0 -42 -9 -49 -31c-2 -8 -2 -17 -2 -19v-81c0 -20 3 -31 8 -39c6 -10 19 -18 44 -18c15 0 27 2 37 14 c13 14 12 32 12 50zM252 147v100c0 21 0 42 -20 56c-13 9 -28 9 -33 9c-58 0 -56 -51 -56 -66v-93c0 -38 9 -55 25 -63c10 -5 19 -7 29 -7c5 0 19 1 31 7c22 12 24 36 24 57z"/>
<glyph glyph-name="nine" unicode="9" d="M364 142c0 -35 -4 -63 -25 -92c-35 -48 -95 -59 -151 -59c-15 0 -89 -1 -131 47c-7 8 -19 23 -26 47c-3 13 -5 27 -5 41v53h115v-42c0 -10 1 -21 4 -31c5 -13 19 -27 49 -27c8 0 45 0 54 33c2 6 2 12 2 24v141c-18 -13 -47 -39 -101 -39c-74 1 -104 38 -115 69 c-4 12 -8 23 -8 48v164c0 34 3 63 22 93c8 14 21 27 34 36c23 14 58 26 117 26c91 0 135 -35 153 -74c8 -18 12 -34 12 -72v-386zM250 402v123c0 21 -1 40 -21 53c-6 4 -16 9 -32 9c-59 -1 -56 -53 -56 -69v-116c0 -30 1 -42 13 -56c6 -7 17 -15 40 -15c20 0 32 6 38 12 c19 16 18 37 18 59z"/>
<glyph glyph-name="colon" unicode=":" horiz-adv-x="229" d="M196 381h-120v131h120v-131zM196 0h-120v130h120v-130z"/>
<glyph glyph-name="semicolon" unicode=";" horiz-adv-x="229" d="M194 382h-119v130h119v-130zM194 0l-82 -135h-45l71 135h-63v130h119v-130z"/>
<glyph glyph-name="less" unicode="<" horiz-adv-x="559" d="M445 76l-358 193v107l358 195v-114l-249 -130l249 -127v-124z"/>
<glyph glyph-name="equal" unicode="=" horiz-adv-x="559" d="M474 354h-389v98h389v-98zM474 162h-389v98h389v-98z"/>
<glyph glyph-name="greater" unicode=">" horiz-adv-x="559" d="M472 271l-358 -195v113l249 131l-249 127v124l358 -194v-106z"/>
<glyph glyph-name="question" unicode="?" horiz-adv-x="417" d="M389 521c0 -36 -10 -75 -23 -94l-68 -99c-27 -40 -38 -57 -41 -81c-2 -12 -2 -24 -2 -35v-22h-113v35c0 17 0 25 1 33c4 35 14 51 33 80l66 102c16 25 28 38 28 82v63c0 11 -3 49 -45 49c-38 0 -49 -22 -49 -54v-117h-111v74c0 7 0 40 4 67c10 59 43 111 162 111 c14 0 72 2 115 -30c6 -4 21 -17 30 -36s13 -44 13 -88v-40zM258 0h-116v130h116v-130z"/>
<glyph glyph-name="at" unicode="@" horiz-adv-x="834" d="M793 432c0 -190 -116 -364 -242 -364c-48 0 -81 25 -89 68c-38 -46 -79 -68 -126 -68c-83 0 -135 63 -135 164c0 155 104 292 221 292c16 0 32 -3 47 -9c23 -9 35 -20 56 -51l10 40h89l-35 -159c-22 -101 -31 -146 -31 -166c0 -17 7 -27 20 -27c12 0 27 10 44 27 c52 56 87 155 87 246c0 134 -83 214 -221 214c-197 0 -365 -185 -365 -403c0 -83 27 -153 75 -200c52 -50 133 -80 217 -80c115 0 229 51 325 146l45 -62c-55 -50 -79 -68 -122 -94c-79 -46 -158 -68 -253 -68c-44 0 -84 6 -120 16c-59 17 -120 51 -159 90 c-62 60 -93 144 -93 249c0 269 199 481 453 481c179 0 302 -115 302 -282zM490 350c0 52 -26 85 -66 85c-61 0 -120 -95 -120 -195c0 -51 23 -82 61 -82c27 0 58 19 81 52c25 35 44 96 44 140z"/>
<glyph glyph-name="A" unicode="A" horiz-adv-x="437" d="M428 0h-132l-17 115h-120l-19 -115h-130l137 706h149zM265 224l-43 303l-47 -303h90z"/>
<glyph glyph-name="B" unicode="B" horiz-adv-x="479" d="M436 151c0 -11 -1 -22 -1 -32c-1 -17 -5 -79 -62 -105c-31 -14 -67 -14 -100 -14h-223v706h219c42 0 82 1 117 -27c40 -31 42 -72 42 -117v-63c0 -2 0 -31 -4 -50c-13 -59 -57 -65 -78 -69c41 -8 57 -18 70 -34c22 -29 20 -62 20 -95v-100zM299 492v48c0 17 -1 22 -3 31 c-9 33 -37 34 -64 34h-52v-178h47c18 0 27 1 35 2c25 5 37 20 37 63zM308 173v83c0 21 0 29 -4 39c-10 29 -42 30 -68 30h-56v-223h55c11 0 23 0 33 2c28 4 40 21 40 69z"/>
<glyph glyph-name="C" unicode="C" horiz-adv-x="458" d="M430 165c0 -28 -1 -58 -10 -84c-34 -98 -165 -96 -180 -96c-30 0 -58 5 -67 7c-52 10 -98 33 -119 84c-10 26 -10 48 -10 74v384c0 12 1 25 2 37c2 45 14 80 50 109c29 23 68 41 146 41c45 0 93 -6 132 -32c19 -13 35 -31 44 -52c11 -23 12 -37 12 -80v-108h-128v89 c0 54 -9 83 -67 83c-50 0 -60 -31 -60 -77v-378c0 -46 10 -80 64 -80c58 0 63 33 63 87v92h128v-100z"/>
<glyph glyph-name="D" unicode="D" horiz-adv-x="479" d="M438 190c0 -13 0 -26 -1 -39c-4 -75 -38 -113 -66 -129c-36 -21 -73 -22 -112 -22h-209v706h239c19 0 59 -3 97 -35c48 -41 52 -93 52 -151v-330zM308 179v352c0 22 1 44 -18 60c-17 14 -39 12 -59 12h-51v-500h46c12 0 25 0 37 2c42 8 45 39 45 74z"/>
<glyph glyph-name="E" unicode="E" horiz-adv-x="417" d="M402 0h-352v706h342v-107h-212v-166h200v-107h-200v-217h222v-109z"/>
<glyph glyph-name="F" unicode="F" d="M396 597h-215v-177h202v-105h-202v-315h-131v706h346v-109z"/>
<glyph glyph-name="G" unicode="G" horiz-adv-x="479" d="M433 0h-111v42c-14 -15 -19 -20 -28 -27c-38 -29 -82 -30 -98 -30c-88 0 -128 47 -142 82c-8 20 -10 41 -10 62v402c0 32 2 64 13 94c29 78 116 96 188 96c57 0 134 -12 169 -65c20 -30 19 -65 19 -75v-103h-130v68c0 24 2 48 -22 63c-6 4 -19 10 -39 10 c-6 0 -26 0 -41 -11c-20 -14 -25 -36 -25 -80v-373c0 -4 -1 -21 5 -37c6 -15 19 -32 56 -32c7 0 34 -2 51 18c16 17 15 41 15 63v110h-80v106h210v-383z"/>
<glyph glyph-name="H" unicode="H" horiz-adv-x="479" d="M429 0h-130v323h-119v-323h-130v706h130v-277h119v277h130v-706z"/>
<glyph glyph-name="I" unicode="I" horiz-adv-x="229" d="M179 0h-129v706h129v-706z"/>
<glyph glyph-name="J" unicode="J" d="M346 160c0 -6 0 -45 -8 -75c-30 -105 -151 -100 -172 -100c-12 0 -74 0 -117 31c-11 8 -28 23 -39 54c-8 25 -9 50 -9 59v95h121v-67c0 -36 4 -53 22 -63c8 -4 16 -6 24 -6c6 0 17 1 28 9c16 12 19 29 19 64v545h131v-546z"/>
<glyph glyph-name="K" unicode="K" horiz-adv-x="458" d="M461 0h-141l-138 345v-345h-132v706h132v-275l141 275h134l-161 -305z"/>
<glyph glyph-name="L" unicode="L" horiz-adv-x="375" d="M371 0h-321v706h130v-599h191v-107z"/>
<glyph glyph-name="M" unicode="M" horiz-adv-x="688" d="M638 0h-130l12 612l-114 -612h-121l-117 612l10 -612h-128v706h212l83 -494l84 494h209v-706z"/>
<glyph glyph-name="N" unicode="N" horiz-adv-x="500" d="M450 0h-164l-125 529l11 -529h-122v706h167l127 -518l-13 518h119v-706z"/>
<glyph glyph-name="O" unicode="O" horiz-adv-x="479" d="M435 151c0 -45 -7 -86 -41 -119c-42 -39 -99 -47 -153 -47c-52 0 -105 7 -147 41c-21 17 -31 34 -35 44c-12 25 -15 55 -15 81v396c0 15 -3 86 44 128c26 23 75 46 154 46c102 0 156 -42 177 -83c11 -23 16 -45 16 -94v-393zM304 170v365c0 4 3 36 -8 57 c-6 13 -21 31 -54 31c-7 0 -26 -1 -42 -13c-29 -20 -25 -51 -25 -80v-357c0 -21 -1 -47 12 -65c15 -21 47 -21 53 -21s25 1 41 12c24 17 23 45 23 71z"/>
<glyph glyph-name="P" unicode="P" horiz-adv-x="458" d="M431 454c0 -66 -3 -98 -25 -125c-21 -26 -51 -35 -115 -35h-110v-294h-131v706h262c4 0 21 0 35 -3c42 -9 62 -36 69 -50c15 -30 15 -75 15 -106v-93zM303 458v72c0 20 3 41 -10 57c-15 19 -43 15 -48 15h-64v-207h63c27 0 42 3 50 14c9 12 9 35 9 49z"/>
<glyph glyph-name="Q" unicode="Q" horiz-adv-x="479" d="M485 -14l-80 -79l-89 91c-4 -1 -8 -3 -12 -4c-12 -3 -42 -9 -76 -9c-52 0 -109 11 -147 50c-15 16 -22 30 -25 38c-12 27 -12 57 -12 65v412c0 31 2 57 15 85c21 43 76 86 181 86c49 0 104 -10 144 -43c6 -5 23 -20 33 -41c11 -23 16 -43 16 -93v-397 c0 -48 -7 -64 -19 -87zM302 167v391c0 20 -4 64 -62 64c-6 0 -20 -1 -34 -7c-30 -14 -31 -46 -31 -74v-390c0 -23 5 -62 63 -62c68 0 64 58 64 78z"/>
<glyph glyph-name="R" unicode="R" horiz-adv-x="479" d="M464 0h-135l-100 313h-49v-313h-130v706h260c86 0 127 -40 127 -126v-128c0 -70 -21 -102 -83 -121zM308 484v63c0 44 -15 58 -60 58h-68v-188h68c45 0 60 16 60 67z"/>
<glyph glyph-name="S" unicode="S" horiz-adv-x="458" d="M424 197c0 -54 0 -77 -7 -104c-16 -57 -63 -108 -183 -108c-50 0 -103 7 -145 40c-23 18 -32 37 -37 48c-8 20 -14 33 -14 73v103h129v-82c0 -26 -2 -56 23 -72c8 -5 20 -10 40 -10c23 0 36 5 45 13c19 15 19 46 19 94c0 9 2 41 -14 65c-10 15 -25 24 -30 28l-123 83 c-27 18 -41 29 -59 58c-15 25 -25 52 -25 112c0 10 -1 60 17 97c40 86 161 86 175 86c21 0 134 0 171 -93c7 -18 11 -25 11 -59v-70h-130v72c0 21 -8 51 -58 51c-30 0 -58 -11 -58 -70c0 -3 -2 -45 14 -68c4 -6 13 -13 27 -23l126 -87c9 -6 37 -27 58 -55 c31 -41 28 -72 28 -122z"/>
<glyph glyph-name="T" unicode="T" d="M394 604h-131v-604h-131v604h-130v102h392v-102z"/>
<glyph glyph-name="U" unicode="U" horiz-adv-x="479" d="M431 159c0 -42 -4 -77 -32 -113c-50 -65 -146 -61 -163 -61c-52 0 -106 11 -144 51c-7 7 -21 24 -30 48c-10 25 -13 53 -13 78v544h130v-525c0 -19 0 -38 7 -55c13 -29 46 -30 54 -30c6 0 23 0 38 11c25 17 22 50 22 75v524h131v-547z"/>
<glyph glyph-name="V" unicode="V" horiz-adv-x="417" d="M410 706l-133 -706h-131l-140 706h138l69 -467l64 467h133z"/>
<glyph glyph-name="W" unicode="W" horiz-adv-x="708" d="M697 706l-136 -706h-137l-68 482l-76 -482h-139l-129 706h135l71 -532l76 532h123l74 -532l74 532h132z"/>
<glyph glyph-name="X" unicode="X" horiz-adv-x="479" d="M465 0h-143l-83 245l-84 -245h-141l156 376l-139 330h142l67 -199l68 199h142l-141 -334z"/>
<glyph glyph-name="Y" unicode="Y" horiz-adv-x="417" d="M416 706l-141 -497v-209h-133v218l-141 488h137l72 -356l69 356h137z"/>
<glyph glyph-name="Z" unicode="Z" horiz-adv-x="417" d="M396 636l-231 -526h227v-110h-369v82l225 515h-196v109h344v-70z"/>
<glyph glyph-name="bracketleft" unicode="[" horiz-adv-x="333" d="M291 -172h-241v931h240v-89h-122v-752h123v-90z"/>
<glyph glyph-name="backslash" unicode="\" horiz-adv-x="250" d="M240 0h-98l-130 706h99z"/>
<glyph glyph-name="bracketright" unicode="]" horiz-adv-x="333" d="M284 -172h-240v90h122v752h-123v89h241v-931z"/>
<glyph glyph-name="asciicircum" unicode="^" horiz-adv-x="559" d="M508 358h-122l-105 242l-107 -242h-123l174 348h110z"/>
<glyph glyph-name="underscore" unicode="_" horiz-adv-x="500" d="M510 -221h-520v92h520v-92z"/>
<glyph glyph-name="grave" unicode="`" horiz-adv-x="250" d="M235 574h-87l-133 132h153z"/>
<glyph glyph-name="a" unicode="a" d="M375 0h-125c-10 11 -12 20 -14 45c-6 -6 -11 -13 -18 -19c-13 -13 -38 -37 -85 -37c-10 0 -38 1 -62 19c-42 31 -39 92 -39 137c0 37 -2 75 24 105c14 17 34 28 54 38l124 62v30c0 30 -3 45 -16 54c-5 3 -13 7 -26 7c-5 0 -28 0 -37 -20c-4 -9 -4 -26 -4 -48v-19h-109v58 c0 12 2 47 29 73c21 21 63 38 129 38c15 0 104 1 140 -64c12 -21 12 -40 12 -49v-285c0 -28 -3 -91 15 -116c1 -3 3 -5 8 -9zM233 108v150l-58 -38c-4 -3 -9 -7 -10 -8c-15 -14 -17 -34 -17 -74c0 -38 5 -60 29 -59c17 0 30 7 43 18z"/>
<glyph glyph-name="b" unicode="b" horiz-adv-x="417" d="M379 113c0 -28 -4 -41 -8 -53c-16 -44 -56 -71 -103 -71c-15 0 -54 4 -86 35c-10 10 -15 18 -18 23l-1 -47h-119v706h119v-234c7 6 13 12 20 17c9 6 46 33 87 33c43 0 85 -27 100 -68c7 -18 9 -33 9 -51v-290zM258 158v215c0 17 -1 34 -14 46c-9 9 -19 12 -31 12 c-11 0 -36 -1 -47 -31c-3 -9 -4 -17 -4 -35v-207c0 -4 0 -13 1 -23c4 -30 17 -45 49 -45c7 0 22 0 33 14c10 13 13 26 13 54z"/>
<glyph glyph-name="c" unicode="c" d="M367 145c0 -16 2 -64 -29 -103c-43 -54 -116 -52 -133 -52c-74 0 -113 23 -136 48c-3 4 -14 19 -21 36c-8 21 -10 42 -10 65v227c0 37 5 68 28 98c44 57 123 58 139 58c12 0 119 0 152 -77c6 -15 10 -32 10 -66v-61h-117v62c0 13 -1 19 -2 25c-3 11 -14 33 -43 32 c-14 0 -23 -4 -28 -7c-16 -11 -21 -27 -21 -62v-223c0 -18 0 -26 3 -35c6 -21 23 -32 44 -32c3 0 16 1 26 7c19 13 20 39 20 59v59h118v-58z"/>
<glyph glyph-name="d" unicode="d" horiz-adv-x="417" d="M372 0h-120l1 50c-12 -17 -38 -61 -100 -60c-36 0 -59 14 -71 22c-38 28 -43 61 -43 142v233c0 18 -5 84 52 119c9 5 30 17 59 17c44 0 74 -25 103 -52v235h119v-706zM253 152v220c0 23 -1 39 -22 51c-13 7 -23 8 -29 8c-5 0 -16 -1 -26 -8c-20 -14 -19 -35 -19 -57v-218 c0 -30 3 -41 17 -50c4 -3 16 -8 29 -8c17 0 32 7 41 20c7 10 9 20 9 42z"/>
<glyph glyph-name="e" unicode="e" d="M360 230h-203v-84c0 -18 0 -25 3 -34c8 -26 31 -29 41 -29c19 0 32 10 38 28c5 14 4 51 4 58h115v-41c0 -18 0 -29 -5 -46c-20 -72 -84 -92 -152 -92c-105 0 -140 52 -154 98c-7 25 -9 61 -9 67v216c0 8 1 42 13 69c25 60 91 82 151 82c83 0 129 -42 144 -73 c9 -18 14 -34 14 -73v-146zM242 314v63c0 11 2 51 -41 51s-44 -38 -44 -51v-63h85z"/>
<glyph glyph-name="f" unicode="f" horiz-adv-x="250" d="M240 608c-17 2 -28 3 -35 1c-22 -5 -22 -29 -22 -34v-63h53v-79h-54v-433h-118v433h-53v79h53c0 107 -1 85 3 114c4 32 20 48 30 57c28 24 63 25 99 25c15 0 30 -1 44 -2v-98z"/>
<glyph glyph-name="g" unicode="g" horiz-adv-x="417" d="M373 -18c0 -11 -1 -22 -2 -33c-1 -18 -5 -69 -52 -101c-20 -14 -61 -30 -121 -30c-21 0 -31 2 -41 3c-17 3 -85 12 -108 74c-7 20 -8 42 -8 63h118c0 -2 -1 -15 2 -24c3 -11 14 -30 44 -30c14 0 22 4 27 7c20 11 21 34 21 54v79c-16 -18 -43 -50 -104 -50 c-30 0 -51 10 -61 15c-47 25 -50 68 -50 113v271c0 20 1 37 7 56c8 24 33 73 102 73c46 0 74 -21 106 -51v41h120v-530zM252 143v227c0 10 4 62 -48 62c-4 0 -18 0 -29 -9c-13 -10 -19 -22 -19 -52v-228c0 -14 2 -24 4 -30c9 -26 35 -27 43 -27c50 0 49 44 49 57z"/>
<glyph glyph-name="h" unicode="h" horiz-adv-x="417" d="M373 0h-119v364c0 21 0 30 -4 40c-7 15 -23 23 -40 23c-32 0 -42 -24 -45 -35c-2 -8 -2 -12 -2 -21v-371h-119v706h117l1 -235c13 14 45 51 104 51c46 0 85 -25 100 -70c4 -12 7 -25 7 -51v-401z"/>
<glyph glyph-name="i" unicode="i" horiz-adv-x="208" d="M164 586h-120v120h120v-120zM164 0h-120v512h120v-512z"/>
<glyph glyph-name="j" unicode="j" horiz-adv-x="208" d="M164 587h-119v119h119v-119zM164 -48c0 -10 4 -81 -45 -112c-24 -15 -52 -17 -79 -17c-9 0 -26 0 -48 3v99c24 0 32 1 42 10c13 12 11 22 11 51v526h119v-560z"/>
<glyph glyph-name="k" unicode="k" d="M406 0h-134l-110 261v-261h-118v706h118v-369l98 175h132l-131 -213z"/>
<glyph glyph-name="l" unicode="l" horiz-adv-x="208" d="M164 0h-120v706h120v-706z"/>
<glyph glyph-name="m" unicode="m" horiz-adv-x="625" d="M581 0h-119v379c0 20 0 39 -18 52c-5 3 -13 7 -25 7c-40 0 -48 -33 -48 -65v-373h-118v376c0 21 2 40 -16 55c-8 7 -17 9 -28 9c-49 0 -46 -52 -46 -61v-379h-118v512h119v-34c13 12 47 45 101 45c55 0 84 -37 96 -51c41 35 55 41 84 47c17 3 25 3 33 3 c46 0 86 -25 98 -70c4 -13 5 -22 5 -46v-406z"/>
<glyph glyph-name="n" unicode="n" horiz-adv-x="417" d="M373 0h-118v377c0 32 -2 45 -18 55c-4 3 -11 6 -23 6c-56 0 -51 -59 -51 -69v-369h-119v512h121l-1 -37c31 30 56 47 102 47c47 0 91 -24 103 -72c4 -14 4 -23 4 -50v-400z"/>
<glyph glyph-name="o" unicode="o" d="M358 132c0 -36 -5 -62 -29 -90c-45 -54 -116 -52 -136 -52c-24 0 -42 3 -51 5c-20 4 -75 21 -95 81c-6 17 -9 33 -9 69v229c0 35 4 49 10 65c24 64 91 83 152 83c16 0 114 1 146 -75c8 -18 12 -34 12 -68v-247zM240 126v260c0 32 -3 46 -19 56c-8 6 -18 6 -22 6 c-13 0 -20 -4 -24 -7c-19 -14 -18 -35 -18 -56v-260c0 -9 -1 -53 41 -53c45 0 42 46 42 54z"/>
<glyph glyph-name="p" unicode="p" horiz-adv-x="417" d="M379 115c0 -9 -1 -46 -17 -76c-6 -11 -13 -19 -22 -27c-11 -9 -32 -22 -66 -22c-49 0 -77 23 -111 53v-220h-119v689h119v-39c12 10 52 50 107 49c14 0 57 -4 85 -41c21 -29 24 -62 24 -94v-272zM259 140v237c0 29 -7 40 -21 49c-4 2 -13 7 -26 7c-9 0 -19 -2 -27 -7 c-20 -12 -22 -31 -22 -52v-230c0 -4 -1 -17 4 -29c10 -26 37 -28 45 -28c25 0 38 14 42 24c5 11 5 27 5 29z"/>
<glyph glyph-name="q" unicode="q" horiz-adv-x="417" d="M373 -177h-118v220c-8 -7 -16 -15 -25 -22c-26 -22 -50 -32 -85 -32c-69 1 -93 50 -100 73c-7 21 -7 44 -7 50v279c0 19 2 38 8 56c16 48 60 75 110 75c54 -1 86 -33 99 -46v36h118v-689zM254 149v236c0 3 0 13 -3 21c-7 20 -26 30 -46 30c-11 0 -19 -3 -23 -5 c-21 -9 -25 -25 -25 -46v-243c0 -13 0 -54 47 -54c53 0 50 49 50 61z"/>
<glyph glyph-name="r" unicode="r" horiz-adv-x="292" d="M279 521l-1 -118c-9 4 -19 8 -39 8c-7 0 -27 0 -45 -12c-33 -23 -32 -63 -32 -97v-302h-118v512h119l-1 -65c3 5 8 17 18 30c33 44 78 45 99 44z"/>
<glyph glyph-name="s" unicode="s" horiz-adv-x="375" d="M341 148c0 -39 0 -79 -27 -112c-22 -27 -58 -46 -131 -46c-57 0 -120 11 -145 71c-11 26 -11 57 -11 66v53h110v-40c0 -17 1 -23 3 -32c2 -12 12 -33 43 -33c4 0 17 0 27 7c10 6 20 22 20 49c0 37 -6 45 -35 66l-100 71c-48 34 -61 64 -61 123c1 102 63 131 155 131 c75 0 116 -26 132 -55c12 -20 14 -41 14 -62v-57h-103v37c0 8 2 56 -44 56c-5 0 -12 0 -22 -5c-15 -9 -19 -25 -19 -41c0 -30 11 -40 34 -56l110 -77c10 -7 22 -20 31 -31c12 -17 19 -40 19 -83z"/>
<glyph glyph-name="t" unicode="t" horiz-adv-x="271" d="M263 1c-13 -3 -30 -6 -61 -6c-69 0 -105 15 -120 48c-9 18 -10 39 -10 59v331h-65v79h64v186h118v-186h71v-79h-71v-292c0 -16 0 -20 3 -28c7 -24 30 -28 51 -28c7 0 13 1 20 2v-86z"/>
<glyph glyph-name="u" unicode="u" horiz-adv-x="417" d="M373 0h-120v42c-13 -12 -52 -51 -109 -51c-10 0 -36 2 -60 18c-41 29 -40 74 -40 117v386h120v-368c0 -18 -2 -36 11 -49c9 -9 20 -13 32 -13c4 0 19 1 30 10c20 17 16 55 16 58v362h120v-512z"/>
<glyph glyph-name="v" unicode="v" horiz-adv-x="354" d="M353 512l-123 -512h-116l-113 512h119l53 -355l61 355h119z"/>
<glyph glyph-name="w" unicode="w" horiz-adv-x="562" d="M559 512l-116 -512h-112l-50 304l-60 -304h-113l-104 512h116l54 -338l60 338h97l54 -338l58 338h116z"/>
<glyph glyph-name="x" unicode="x" horiz-adv-x="375" d="M371 0h-128l-58 207l-58 -207h-123l111 278l-90 234h123l44 -171l46 171h115l-92 -234z"/>
<glyph glyph-name="y" unicode="y" horiz-adv-x="354" d="M353 512l-117 -549c-11 -53 -23 -82 -40 -103c-19 -23 -44 -37 -103 -37c-30 0 -47 4 -77 9l18 94c8 -2 23 -7 45 -7c41 0 52 44 54 67l1 14l-133 512h118l66 -329l51 329h117z"/>
<glyph glyph-name="z" unicode="z" horiz-adv-x="354" d="M333 0h-309v100l179 316h-160v96h282v-96l-177 -316h185v-100z"/>
<glyph glyph-name="braceleft" unicode="{" horiz-adv-x="354" d="M336 -182h-24c-85 0 -161 12 -183 108c-10 45 -6 137 -6 182c0 71 2 139 -85 149v77c15 2 33 6 46 14c41 26 39 91 39 134v91c0 31 -1 67 7 98c24 91 100 103 182 103h24v-75c-18 -1 -42 -2 -60 -9c-40 -16 -39 -73 -39 -109c0 -45 1 -90 -1 -135 c-3 -71 -17 -135 -99 -148v-5c89 -14 97 -86 99 -160c1 -42 1 -85 1 -127c0 -39 0 -94 46 -107c17 -5 36 -5 53 -6v-75z"/>
<glyph glyph-name="bar" unicode="|" horiz-adv-x="205" d="M160 -168h-114v930h114v-930z"/>
<glyph glyph-name="braceright" unicode="}" horiz-adv-x="354" d="M336 257c-13 -2 -29 -4 -40 -10c-48 -26 -45 -91 -45 -138v-99c0 -29 1 -60 -6 -88c-24 -91 -97 -104 -179 -104h-28v75c19 1 41 2 58 8c43 15 42 73 42 110c0 44 0 89 1 133c2 72 16 135 99 149v5c-84 14 -96 76 -99 149c-2 46 -1 92 -1 138c0 35 0 80 -33 101 c-20 13 -44 12 -67 13v75h24c86 0 161 -13 184 -109c9 -39 5 -144 5 -181c0 -45 -1 -116 46 -140c12 -6 26 -8 39 -10v-77z"/>
<glyph glyph-name="asciitilde" unicode="~" horiz-adv-x="563" d="M502 288c-46 -49 -84 -71 -127 -71c-24 0 -46 7 -89 27l-26 12c-33 15 -53 22 -73 22c-21 0 -38 -7 -54 -20c-10 -10 -14 -13 -30 -32l-42 91c23 26 29 32 45 44c23 18 49 27 78 27c24 0 43 -5 80 -21l50 -22c34 -15 44 -18 60 -18c27 0 51 14 85 51z"/>
<glyph glyph-name="exclamdown" unicode="¡" horiz-adv-x="229" d="M154 574h-119v132h119v-132zM151 0h-113v313l19 203h78l16 -197v-319z"/>
<glyph glyph-name="cent" unicode="¢" d="M367 317h-118v64c0 9 3 54 -45 54c-56 0 -48 -60 -48 -64v-234c0 -44 21 -57 47 -58c52 -1 46 50 46 57v68h117v-67c0 -43 -6 -139 -136 -149v-99h-50v99c-130 15 -141 94 -141 148v242c0 3 0 26 4 43c24 95 127 99 137 100v83h50v-83c41 -4 137 -14 137 -138v-66z"/>
<glyph glyph-name="sterling" unicode="£" horiz-adv-x="479" d="M457 122c0 -4 -1 -33 -6 -53c-8 -28 -31 -81 -108 -81c-8 0 -24 1 -43 7c-17 5 -53 19 -90 44c-11 -11 -45 -51 -100 -51c-6 0 -21 1 -37 7c-17 7 -51 28 -51 77c0 50 39 85 88 85c31 0 69 -17 75 -19c3 7 9 17 9 36c0 22 -12 58 -37 104h-111v61h86l-18 42 c-9 21 -33 78 -33 146c0 74 26 112 51 134c21 19 59 42 124 42c42 0 89 -10 122 -37c20 -16 33 -37 42 -61c9 -26 12 -48 12 -75v-49h-115v41c0 39 -5 85 -57 85c-6 0 -22 0 -36 -12c-17 -14 -25 -35 -25 -77c0 -68 26 -119 51 -179h106v-61h-84c3 -11 9 -26 9 -52 c-1 -56 -23 -102 -30 -119c4 -3 8 -5 12 -8c13 -7 36 -17 51 -17c4 0 13 0 21 6c17 13 21 42 21 61v48h101v-75zM149 74c-17 14 -36 20 -44 20c-15 0 -26 -12 -26 -25c1 -15 13 -25 27 -25c20 1 31 17 43 30z"/>
<glyph glyph-name="currency" unicode="¤" horiz-adv-x="658" d="M632 105l-81 -83l-77 81c-55 -34 -91 -45 -145 -45c-57 0 -96 13 -147 46l-76 -80l-80 83l77 80c-31 46 -45 92 -45 151s13 102 44 153l-75 79l80 83l75 -78c44 31 92 45 148 45c55 0 95 -13 145 -45l77 79l80 -84l-76 -79c32 -55 43 -97 43 -152 c0 -57 -12 -101 -44 -153zM482 337c0 95 -67 169 -152 169c-87 0 -154 -73 -154 -167c-1 -94 67 -166 154 -166c84 0 152 73 152 164z"/>
<glyph glyph-name="yen" unicode="¥" horiz-adv-x="417" d="M404 665l-90 -314h79v-73h-99l-18 -57h117v-71h-120v-150h-131v150h-120v71h118l-16 57h-102v73h81l-91 314h133l64 -316l60 316h135z"/>
<glyph glyph-name="brokenbar" unicode="¦" horiz-adv-x="205" d="M160 361h-114v401h114v-401zM160 -168h-114v402h114v-402z"/>
<glyph glyph-name="section" unicode="§" horiz-adv-x="437" d="M421 260c0 -66 -36 -106 -79 -150c43 -46 47 -69 47 -132c0 -111 -65 -153 -172 -153c-59 0 -134 17 -161 77c-8 17 -10 43 -10 62v85h115v-71c0 -36 13 -61 53 -61c33 0 53 17 53 51c0 62 -10 66 -55 104l-126 108c-40 34 -72 75 -72 130c0 61 40 106 81 147 c-29 34 -38 52 -38 98c0 118 47 163 168 163c59 0 135 -11 160 -73c7 -17 8 -36 8 -54v-79h-113v59c0 37 -16 59 -56 59c-35 0 -48 -21 -48 -54c0 -44 34 -66 64 -92l120 -103c38 -32 61 -70 61 -121zM316 233c0 20 -9 34 -22 48c-18 20 -39 37 -60 54l-80 66 c-15 -19 -33 -43 -33 -68c0 -14 8 -27 16 -38c23 -31 113 -100 146 -125c14 18 33 39 33 63z"/>
<glyph glyph-name="dieresis" unicode="¨" horiz-adv-x="250" d="M276 595h-119v124h119v-124zM93 595h-119v124h119v-124z"/>
<glyph glyph-name="copyright" unicode="©" horiz-adv-x="799" d="M756 354c0 -201 -156 -357 -357 -357c-197 0 -355 158 -355 356s158 356 356 356c199 0 356 -157 356 -355zM710 353c0 177 -137 316 -310 316c-171 0 -310 -142 -310 -317c0 -176 137 -315 309 -315s311 140 311 316zM534 265c0 -104 -37 -143 -133 -143 c-26 0 -49 4 -70 12c-50 18 -71 60 -71 143v158c0 57 7 87 28 112c22 28 61 43 113 43c96 0 133 -39 133 -142v-35h-92v40c0 39 -12 54 -43 54c-20 0 -33 -7 -40 -21c-5 -10 -6 -20 -6 -49v-162c0 -29 1 -39 6 -49c7 -14 20 -20 40 -20c31 0 43 14 43 54v44h92v-39z"/>
<glyph glyph-name="ordfeminine" unicode="ª" horiz-adv-x="229" d="M210 420h-68c-6 11 -6 9 -9 25c-18 -22 -32 -29 -53 -29c-61 0 -58 51 -58 88c0 48 2 59 77 95c0 0 21 9 33 16v23c0 16 -3 26 -22 26c-23 0 -22 -26 -22 -38v-10h-61v17c0 11 0 28 5 38c17 35 53 41 77 41c37 0 91 -11 91 -66v-174c0 -13 -1 -39 10 -52zM131 482v79 l-28 -19c-15 -10 -16 -16 -16 -40c0 -19 1 -36 15 -36c8 0 22 10 29 16z"/>
<glyph glyph-name="guillemotleft" unicode="«" horiz-adv-x="313" d="M278 127l-102 94v94l102 94v-97l-43 -45l43 -42v-98zM133 127l-102 93v92l102 97v-97l-39 -45l39 -40v-100z"/>
<glyph glyph-name="logicalnot" unicode="¬" horiz-adv-x="559" d="M474 63h-120v186h-298v99h418v-285z"/>
<glyph glyph-name="registered" unicode="®" horiz-adv-x="799" d="M756 354c0 -201 -156 -357 -357 -357c-197 0 -355 158 -355 356s158 356 356 356c199 0 356 -157 356 -355zM710 353c0 177 -137 316 -310 316c-171 0 -310 -142 -310 -317c0 -176 137 -315 309 -315s311 140 311 316zM558 130h-100l-79 190h-26v-190h-91v449h150 c88 0 121 -25 121 -91v-69c0 -49 -19 -75 -65 -88zM443 443v23c0 26 -13 37 -42 37h-48v-107h44c34 0 46 12 46 47z"/>
<glyph glyph-name="macron" unicode="¯" horiz-adv-x="250" d="M259 590h-268v81h268v-81z"/>
<glyph glyph-name="degree" unicode="°" horiz-adv-x="354" d="M338 594c0 -89 -71 -162 -161 -162s-161 73 -161 162s72 161 161 161c91 0 161 -71 161 -161zM256 596c0 44 -35 79 -79 79s-79 -35 -79 -79c0 -43 36 -79 79 -79c44 0 79 35 79 79z"/>
<glyph glyph-name="plusminus" unicode="±" horiz-adv-x="559" d="M477 315h-137v-157h-118v157h-139v101h139v157h118v-157h137v-101zM477 0h-394v101h394v-101z"/>
<glyph glyph-name="twosuperior" unicode="²" horiz-adv-x="292" d="M269 224h-249v13c0 107 37 141 98 195c18 17 50 42 59 59c6 11 7 16 7 34v47c0 13 -2 36 -36 36c-28 0 -43 -9 -43 -39v-55h-76v56c0 72 47 100 112 101c63 0 101 -20 116 -58c3 -7 7 -25 7 -41v-55c0 -56 -8 -61 -92 -137c-48 -43 -60 -55 -62 -86h159v-70z"/>
<glyph glyph-name="threesuperior" unicode="³" horiz-adv-x="292" d="M266 320c0 -99 -101 -102 -117 -102c-35 0 -92 7 -116 56c-7 15 -8 33 -8 36v56h81v-49c0 -17 3 -36 38 -36c36 0 41 12 41 33v65c0 29 1 52 -54 52h-32v56h32c20 0 34 5 43 14c6 7 6 12 7 15c2 5 2 18 2 22v36c0 26 -15 33 -39 33c-30 0 -38 -11 -38 -30v-47h-77v56 c0 3 1 24 10 39c24 41 78 46 109 46c52 0 87 -18 104 -45c6 -9 12 -28 12 -49v-41c0 -23 7 -57 -51 -74c51 -6 53 -40 53 -76v-66z"/>
<glyph glyph-name="acute" unicode="´" horiz-adv-x="250" d="M235 706l-133 -132h-87l67 132h153z"/>
<glyph glyph-name="mu" unicode="µ" horiz-adv-x="417" d="M396 0h-137l-3 42c-15 -32 -30 -44 -55 -44c-15 0 -24 4 -37 16v-191h-120v689h120v-384c0 -29 16 -46 43 -46c31 0 46 19 46 57v373h120v-422c0 -53 5 -75 23 -90z"/>
<glyph glyph-name="paragraph" unicode="¶" horiz-adv-x="597" d="M503 627h-36v-794h-85v794h-91v-794h-85v468c-21 6 -28 8 -40 13c-64 28 -103 96 -103 182c0 64 20 117 59 155c16 16 34 28 54 37c32 14 58 18 116 18h211v-79z"/>
<glyph glyph-name="periodcentered" unicode="·" horiz-adv-x="187" d="M152 216h-117v130h117v-130z"/>
<glyph glyph-name="cedilla" unicode="¸" horiz-adv-x="250" d="M225 -121c0 -11 -4 -37 -29 -54c-28 -18 -83 -18 -86 -18c-23 0 -55 4 -59 4c-8 2 -17 4 -26 6v30c15 -2 49 -5 63 0c19 6 24 20 23 27c0 27 -32 29 -36 29v123h44v-79c7 0 63 4 91 -28c5 -5 15 -19 15 -40z"/>
<glyph glyph-name="onesuperior" unicode="¹" horiz-adv-x="292" d="M199 224h-81v332c-21 -16 -37 -19 -78 -27v66c60 18 77 37 105 70h54v-441z"/>
<glyph glyph-name="ordmasculine" unicode="º" horiz-adv-x="229" d="M204 499c0 -1 0 -25 -7 -39c-19 -36 -56 -43 -83 -43c-82 0 -89 54 -89 87v127c0 61 41 81 92 81c47 0 72 -19 83 -46c4 -11 4 -26 4 -37v-130zM136 497v138c0 13 2 35 -22 35c-15 0 -21 -12 -21 -33v-140s-6 -33 21 -33c22 0 22 20 22 33z"/>
<glyph glyph-name="guillemotright" unicode="»" horiz-adv-x="313" d="M281 224l-102 -97v97l40 45l-40 40v100l102 -93v-92zM137 221l-103 -94v97l43 45l-43 42v98l103 -94v-94z"/>
<glyph glyph-name="onequarter" unicode="¼" horiz-adv-x="708" d="M686 83h-27v-83h-75v83h-147v64l127 296h95v-294h27v-66zM519 692l-265 -737l-64 22l266 738zM199 224h-81v332c-21 -16 -37 -19 -78 -27v66c60 18 77 37 105 70h54v-441zM589 348l-82 -200h77z"/>
<glyph glyph-name="onehalf" unicode="½" horiz-adv-x="708" d="M686 0h-249v13c0 107 37 141 98 195c18 17 50 42 59 59c6 11 7 16 7 34v47c0 13 -2 36 -36 36c-28 0 -43 -9 -43 -39v-55h-76v56c0 72 47 100 112 101c63 0 101 -20 116 -58c3 -7 7 -25 7 -41v-55c0 -56 -8 -61 -92 -137c-48 -43 -60 -55 -62 -86h159v-70zM502 692 l-266 -737l-63 22l265 738zM199 224h-81v332c-21 -16 -37 -19 -78 -27v66c60 18 77 37 105 70h54v-441z"/>
<glyph glyph-name="threequarters" unicode="¾" horiz-adv-x="708" d="M686 83h-27v-83h-75v83h-147v64l127 296h95v-294h27v-66zM546 692l-266 -737l-63 22l265 738zM266 320c0 -99 -101 -102 -117 -102c-35 0 -92 7 -116 56c-7 15 -8 33 -8 36v56h81v-49c0 -17 3 -36 38 -36c36 0 41 12 41 33v65c0 29 1 52 -54 52h-32v56h32 c20 0 34 5 43 14c6 7 6 12 7 15c2 5 2 18 2 22v36c0 26 -15 33 -39 33c-30 0 -38 -11 -38 -30v-47h-77v56c0 3 1 24 10 39c24 41 78 46 109 46c52 0 87 -18 104 -45c6 -9 12 -28 12 -49v-41c0 -23 7 -57 -51 -74c51 -6 53 -40 53 -76v-66zM589 348l-82 -200h77z"/>
<glyph glyph-name="questiondown" unicode="¿" horiz-adv-x="417" d="M275 576h-117v130h117v-130zM351 170c0 -35 0 -97 -28 -131c-25 -31 -70 -48 -134 -48c-75 -1 -125 22 -148 65c-10 18 -13 46 -13 89c0 60 3 96 16 123c5 10 17 28 24 38l50 72c47 68 44 75 44 116v22h113v-45c0 -53 -18 -75 -35 -102l-65 -102c-22 -34 -29 -39 -29 -74 v-59c0 -47 15 -62 46 -62c49 0 48 42 48 54v117h111v-73z"/>
<glyph glyph-name="Agrave" unicode="À" horiz-adv-x="437" d="M283 762h-86l-134 133h154zM428 0h-132l-17 115h-120l-19 -115h-130l137 706h149zM265 224l-43 303l-47 -303h90z"/>
<glyph glyph-name="Aacute" unicode="Á" horiz-adv-x="437" d="M376 897l-127 -134h-93l64 134h156zM428 0h-132l-17 115h-120l-19 -115h-130l137 706h149zM265 224l-43 303l-47 -303h90z"/>
<glyph glyph-name="Acircumflex" unicode="Â" horiz-adv-x="437" d="M367 762h-104l-44 73l-48 -73h-104l86 133h128zM428 0h-132l-17 115h-120l-19 -115h-130l137 706h149zM265 224l-43 303l-47 -303h90z"/>
<glyph glyph-name="Atilde" unicode="Ã" horiz-adv-x="437" d="M388 886c-1 -40 -2 -90 -40 -114c-6 -4 -23 -13 -45 -13c-26 0 -67 17 -89 27c-16 8 -32 17 -49 17c-34 0 -42 -32 -44 -40h-65c1 40 5 76 38 104c18 15 36 21 59 21c21 0 45 -6 85 -24c25 -12 40 -19 54 -19c3 0 7 0 13 3c11 6 15 16 19 38h64zM428 0h-132l-17 115h-120 l-19 -115h-130l137 706h149zM265 224l-43 303l-47 -303h90z"/>
<glyph glyph-name="Adieresis" unicode="Ä" horiz-adv-x="437" d="M386 762h-116v121h116v-121zM186 762h-117v121h117v-121zM428 0h-132l-17 115h-120l-19 -115h-130l137 706h149zM265 224l-43 303l-47 -303h90z"/>
<glyph glyph-name="Aring" unicode="Å" horiz-adv-x="437" d="M315 829c0 -49 -40 -89 -89 -89s-89 41 -89 90s40 89 89 89c50 0 89 -41 89 -90zM428 0h-132l-17 115h-120l-19 -115h-130l137 706h149zM267 828c-1 23 -19 41 -42 41c-22 0 -41 -18 -41 -41s19 -41 42 -41c22 0 41 19 41 41zM265 224l-43 303l-47 -303h90z"/>
<glyph glyph-name="AE" unicode="Æ" horiz-adv-x="708" d="M686 0h-356v146h-138l-49 -146h-140l262 706h420v-109h-225v-163h212v-106h-212v-219h226v-109zM330 253v300l-102 -300h102z"/>
<glyph glyph-name="Ccedilla" unicode="Ç" horiz-adv-x="458" d="M430 166c0 -13 0 -22 -1 -35c-2 -30 -8 -108 -110 -136c-17 -5 -29 -6 -62 -9v-42c36 0 105 -5 106 -67c1 -50 -45 -73 -115 -73c-40 0 -70 6 -85 10v30c4 -1 22 -2 37 -2s48 1 49 28c2 28 -34 30 -36 31v86c-28 3 -47 4 -75 14c-83 30 -94 88 -94 149l1 395 c0 28 0 61 14 89c27 55 88 86 179 87c53 0 142 -8 179 -81c8 -16 13 -39 13 -75v-116h-128v89c0 46 -4 83 -66 83c-56 0 -61 -38 -61 -77v-378c0 -42 7 -81 65 -80c66 1 62 44 62 87v92h128v-99z"/>
<glyph glyph-name="Egrave" unicode="È" horiz-adv-x="417" d="M273 762h-87l-133 133h153zM402 0h-352v706h342v-107h-212v-166h200v-107h-200v-217h222v-109z"/>
<glyph glyph-name="Eacute" unicode="É" horiz-adv-x="417" d="M365 897l-127 -134h-92l64 134h155zM402 0h-352v706h342v-107h-212v-166h200v-107h-200v-217h222v-109z"/>
<glyph glyph-name="Ecircumflex" unicode="Ê" horiz-adv-x="417" d="M357 762h-105l-44 73l-48 -73h-104l86 133h129zM402 0h-352v706h342v-107h-212v-166h200v-107h-200v-217h222v-109z"/>
<glyph glyph-name="Edieresis" unicode="Ë" horiz-adv-x="417" d="M369 762h-116v121h116v-121zM169 762h-117v121h117v-121zM402 0h-352v706h342v-107h-212v-166h200v-107h-200v-217h222v-109z"/>
<glyph glyph-name="Igrave" unicode="Ì" horiz-adv-x="229" d="M179 762h-86l-134 133h154zM179 0h-129v706h129v-706z"/>
<glyph glyph-name="Iacute" unicode="Í" horiz-adv-x="229" d="M271 897l-126 -134h-93l64 134h155zM179 0h-129v706h129v-706z"/>
<glyph glyph-name="Icircumflex" unicode="Î" horiz-adv-x="229" d="M263 762h-104l-44 73l-48 -73h-105l86 133h129zM179 0h-129v706h129v-706z"/>
<glyph glyph-name="Idieresis" unicode="Ï" horiz-adv-x="229" d="M276 762h-116v121h116v-121zM75 762h-117v121h117v-121zM179 0h-129v706h129v-706z"/>
<glyph glyph-name="Eth" unicode="Ð" horiz-adv-x="479" d="M438 190c0 -43 1 -102 -40 -145c-41 -44 -98 -45 -139 -45h-209v334h-50v72h50v300h210c8 0 126 13 166 -91c11 -30 11 -62 11 -70c0 -9 1 -15 1 -25v-330zM308 179v352c0 54 -15 72 -70 72h-58v-197h77v-72h-77v-231h46c60 0 82 11 82 76z"/>
<glyph glyph-name="Ntilde" unicode="Ñ" horiz-adv-x="500" d="M419 886c-1 -40 -2 -90 -39 -114c-7 -4 -24 -13 -46 -13c-26 0 -67 16 -89 27c-15 7 -32 17 -49 17c-34 0 -42 -33 -44 -41l-65 1c2 40 6 76 39 104c17 15 35 21 59 21c21 0 44 -6 84 -24c25 -12 41 -19 54 -19c3 0 7 0 13 3c11 6 15 16 19 38h64zM450 0h-164l-125 529 l11 -529h-122v706h167l127 -518l-13 518h119v-706z"/>
<glyph glyph-name="Ograve" unicode="Ò" horiz-adv-x="479" d="M304 762h-86l-134 133h154zM435 151c0 -45 -7 -86 -41 -119c-42 -39 -99 -47 -153 -47c-52 0 -105 7 -147 41c-21 17 -31 34 -35 44c-12 25 -15 55 -15 81v396c0 15 -3 86 44 128c26 23 75 46 154 46c102 0 156 -42 177 -83c11 -23 16 -45 16 -94v-393zM304 170v365 c0 4 3 36 -8 57c-6 13 -21 31 -54 31c-7 0 -26 -1 -42 -13c-29 -20 -25 -51 -25 -80v-357c0 -21 -1 -47 12 -65c15 -21 47 -21 53 -21s25 1 41 12c24 17 23 45 23 71z"/>
<glyph glyph-name="Oacute" unicode="Ó" horiz-adv-x="479" d="M396 897l-126 -134h-93l64 134h155zM435 151c0 -45 -7 -86 -41 -119c-42 -39 -99 -47 -153 -47c-52 0 -105 7 -147 41c-21 17 -31 34 -35 44c-12 25 -15 55 -15 81v396c0 15 -3 86 44 128c26 23 75 46 154 46c102 0 156 -42 177 -83c11 -23 16 -45 16 -94v-393zM304 170 v365c0 4 3 36 -8 57c-6 13 -21 31 -54 31c-7 0 -26 -1 -42 -13c-29 -20 -25 -51 -25 -80v-357c0 -21 -1 -47 12 -65c15 -21 47 -21 53 -21s25 1 41 12c24 17 23 45 23 71z"/>
<glyph glyph-name="Ocircumflex" unicode="Ô" horiz-adv-x="479" d="M388 762h-104l-44 73l-48 -73h-105l86 133h129zM435 151c0 -45 -7 -86 -41 -119c-42 -39 -99 -47 -153 -47c-52 0 -105 7 -147 41c-21 17 -31 34 -35 44c-12 25 -15 55 -15 81v396c0 15 -3 86 44 128c26 23 75 46 154 46c102 0 156 -42 177 -83c11 -23 16 -45 16 -94 v-393zM304 170v365c0 4 3 36 -8 57c-6 13 -21 31 -54 31c-7 0 -26 -1 -42 -13c-29 -20 -25 -51 -25 -80v-357c0 -21 -1 -47 12 -65c15 -21 47 -21 53 -21s25 1 41 12c24 17 23 45 23 71z"/>
<glyph glyph-name="Otilde" unicode="Õ" horiz-adv-x="479" d="M409 886c-1 -40 -2 -90 -40 -114c-6 -4 -23 -13 -45 -13c-26 0 -67 17 -89 27c-16 8 -32 17 -50 17c-33 0 -41 -33 -43 -41l-65 1c1 40 5 76 38 104c18 15 36 21 59 21c21 0 44 -6 84 -24c26 -12 41 -19 55 -19c2 0 7 0 13 3c11 6 14 16 19 38h64zM435 151 c0 -45 -7 -86 -41 -119c-42 -39 -99 -47 -153 -47c-52 0 -105 7 -147 41c-21 17 -31 34 -35 44c-12 25 -15 55 -15 81v396c0 15 -3 86 44 128c26 23 75 46 154 46c102 0 156 -42 177 -83c11 -23 16 -45 16 -94v-393zM304 170v365c0 4 3 36 -8 57c-6 13 -21 31 -54 31 c-7 0 -26 -1 -42 -13c-29 -20 -25 -51 -25 -80v-357c0 -21 -1 -47 12 -65c15 -21 47 -21 53 -21s25 1 41 12c24 17 23 45 23 71z"/>
<glyph glyph-name="Odieresis" unicode="Ö" horiz-adv-x="479" d="M401 762h-116v121h116v-121zM200 762h-117v121h117v-121zM435 151c0 -45 -7 -86 -41 -119c-42 -39 -99 -47 -153 -47c-52 0 -105 7 -147 41c-21 17 -31 34 -35 44c-12 25 -15 55 -15 81v396c0 15 -3 86 44 128c26 23 75 46 154 46c102 0 156 -42 177 -83 c11 -23 16 -45 16 -94v-393zM304 170v365c0 4 3 36 -8 57c-6 13 -21 31 -54 31c-7 0 -26 -1 -42 -13c-29 -20 -25 -51 -25 -80v-357c0 -21 -1 -47 12 -65c15 -21 47 -21 53 -21s25 1 41 12c24 17 23 45 23 71z"/>
<glyph glyph-name="multiply" unicode="×" horiz-adv-x="558" d="M472 205l-79 -90l-115 107l-99 -108l-75 67l100 109l-116 106l81 88l115 -106l99 107l73 -69l-98 -107z"/>
<glyph glyph-name="Oslash" unicode="Ø" horiz-adv-x="479" d="M447 693l-33 -65c11 -18 20 -32 20 -72v-403c0 -20 -2 -40 -8 -60c-15 -46 -65 -108 -179 -108c-73 0 -109 24 -135 43l-20 -39l-59 31l33 62c-10 17 -20 36 -20 76v395c0 43 5 71 33 104c54 63 132 64 157 64c68 0 111 -22 134 -38l20 38zM303 545v19c0 10 -1 21 -7 31 c-6 11 -23 24 -52 24c-5 0 -25 -1 -41 -11c-26 -17 -25 -51 -25 -76v-228zM303 170v232l-125 -241v-16c0 -15 4 -21 7 -28c7 -14 21 -28 54 -28c5 0 26 0 42 12c22 17 22 44 22 69z"/>
<glyph glyph-name="Ugrave" unicode="Ù" horiz-adv-x="479" d="M304 762h-86l-134 133h154zM431 159c0 -42 -4 -77 -32 -113c-50 -65 -146 -61 -163 -61c-52 0 -106 11 -144 51c-7 7 -21 24 -30 48c-10 25 -13 53 -13 78v544h130v-525c0 -19 0 -38 7 -55c13 -29 46 -30 54 -30c6 0 23 0 38 11c25 17 22 50 22 75v524h131v-547z"/>
<glyph glyph-name="Uacute" unicode="Ú" horiz-adv-x="479" d="M396 897l-126 -134h-93l64 134h155zM431 159c0 -42 -4 -77 -32 -113c-50 -65 -146 -61 -163 -61c-52 0 -106 11 -144 51c-7 7 -21 24 -30 48c-10 25 -13 53 -13 78v544h130v-525c0 -19 0 -38 7 -55c13 -29 46 -30 54 -30c6 0 23 0 38 11c25 17 22 50 22 75v524h131v-547z "/>
<glyph glyph-name="Ucircumflex" unicode="Û" horiz-adv-x="479" d="M388 762h-104l-44 73l-48 -73h-105l86 133h129zM431 159c0 -42 -4 -77 -32 -113c-50 -65 -146 -61 -163 -61c-52 0 -106 11 -144 51c-7 7 -21 24 -30 48c-10 25 -13 53 -13 78v544h130v-525c0 -19 0 -38 7 -55c13 -29 46 -30 54 -30c6 0 23 0 38 11c25 17 22 50 22 75 v524h131v-547z"/>
<glyph glyph-name="Udieresis" unicode="Ü" horiz-adv-x="479" d="M402 762h-116v121h116v-121zM201 762h-117v121h117v-121zM431 159c0 -42 -4 -77 -32 -113c-50 -65 -146 -61 -163 -61c-52 0 -106 11 -144 51c-7 7 -21 24 -30 48c-10 25 -13 53 -13 78v544h130v-525c0 -19 0 -38 7 -55c13 -29 46 -30 54 -30c6 0 23 0 38 11 c25 17 22 50 22 75v524h131v-547z"/>
<glyph glyph-name="Yacute" unicode="Ý" horiz-adv-x="417" d="M365 897l-127 -134h-92l64 134h155zM416 706l-141 -497v-209h-133v218l-141 488h137l72 -356l69 356h137z"/>
<glyph glyph-name="Thorn" unicode="Þ" horiz-adv-x="458" d="M431 337c0 -44 8 -127 -65 -152c-14 -5 -40 -9 -75 -9h-110v-176h-131v706h131v-117h131c102 0 119 -63 119 -143v-109zM303 335v96c0 48 -29 53 -50 53h-72v-207h63c33 0 59 -4 59 58z"/>
<glyph glyph-name="germandbls" unicode="ß" horiz-adv-x="417" d="M381 116c0 -7 1 -31 -6 -53c-16 -54 -65 -72 -117 -72c-24 0 -44 4 -68 9l1 69c10 -1 20 -3 30 -2c48 2 42 50 42 60v183c0 45 -9 68 -59 68h-18v81h14c41 0 54 9 54 55v73c0 15 0 49 -45 49c-2 0 -34 1 -42 -19c-4 -8 -4 -17 -4 -26v-591h-119v589c0 32 2 60 23 86 c22 27 59 46 132 46c15 0 29 0 43 -2c16 -2 83 -9 108 -66c8 -20 10 -40 10 -60v-65c0 -66 -2 -82 -71 -95c35 -6 75 -11 87 -52c3 -11 5 -38 5 -70v-195z"/>
<glyph glyph-name="agrave" unicode="à" d="M262 574h-86l-133 132h153zM375 0h-125c-10 11 -12 20 -14 45c-6 -6 -11 -13 -18 -19c-13 -13 -38 -37 -85 -37c-10 0 -38 1 -62 19c-42 31 -39 92 -39 137c0 37 -2 75 24 105c14 17 34 28 54 38l124 62v30c0 30 -3 45 -16 54c-5 3 -13 7 -26 7c-5 0 -28 0 -37 -20 c-4 -9 -4 -26 -4 -48v-19h-109v58c0 12 2 47 29 73c21 21 63 38 129 38c15 0 104 1 140 -64c12 -21 12 -40 12 -49v-285c0 -28 -3 -91 15 -116c1 -3 3 -5 8 -9zM233 108v150l-58 -38c-4 -3 -9 -7 -10 -8c-15 -14 -17 -34 -17 -74c0 -38 5 -60 29 -59c17 0 30 7 43 18z"/>
<glyph glyph-name="aacute" unicode="á" d="M344 706l-133 -132h-87l67 132h153zM375 0h-125c-10 11 -12 20 -14 45c-6 -6 -11 -13 -18 -19c-13 -13 -38 -37 -85 -37c-10 0 -38 1 -62 19c-42 31 -39 92 -39 137c0 37 -2 75 24 105c14 17 34 28 54 38l124 62v30c0 30 -3 45 -16 54c-5 3 -13 7 -26 7 c-5 0 -28 0 -37 -20c-4 -9 -4 -26 -4 -48v-19h-109v58c0 12 2 47 29 73c21 21 63 38 129 38c15 0 104 1 140 -64c12 -21 12 -40 12 -49v-285c0 -28 -3 -91 15 -116c1 -3 3 -5 8 -9zM233 108v150l-58 -38c-4 -3 -9 -7 -10 -8c-15 -14 -17 -34 -17 -74c0 -38 5 -60 29 -59 c17 0 30 7 43 18z"/>
<glyph glyph-name="acircumflex" unicode="â" d="M347 574h-105l-44 73l-48 -73h-104l86 132h129zM375 0h-125c-10 11 -12 20 -14 45c-6 -6 -11 -13 -18 -19c-13 -13 -38 -37 -85 -37c-10 0 -38 1 -62 19c-42 31 -39 92 -39 137c0 37 -2 75 24 105c14 17 34 28 54 38l124 62v30c0 30 -3 45 -16 54c-5 3 -13 7 -26 7 c-5 0 -28 0 -37 -20c-4 -9 -4 -26 -4 -48v-19h-109v58c0 12 2 47 29 73c21 21 63 38 129 38c15 0 104 1 140 -64c12 -21 12 -40 12 -49v-285c0 -28 -3 -91 15 -116c1 -3 3 -5 8 -9zM233 108v150l-58 -38c-4 -3 -9 -7 -10 -8c-15 -14 -17 -34 -17 -74c0 -38 5 -60 29 -59 c17 0 30 7 43 18z"/>
<glyph glyph-name="atilde" unicode="ã" d="M367 697c-1 -40 -2 -89 -40 -113c-6 -4 -23 -14 -45 -14c-26 1 -67 18 -89 28c-15 7 -32 17 -49 17c-34 -1 -42 -33 -44 -41h-65c2 40 6 77 38 105c18 15 36 21 60 21c20 0 44 -6 84 -25c25 -11 40 -19 54 -19c3 0 7 1 13 4c11 6 15 15 19 38zM375 0h-125 c-10 11 -12 20 -14 45c-6 -6 -11 -13 -18 -19c-13 -13 -38 -37 -85 -37c-10 0 -38 1 -62 19c-42 31 -39 92 -39 137c0 37 -2 75 24 105c14 17 34 28 54 38l124 62v30c0 30 -3 45 -16 54c-5 3 -13 7 -26 7c-5 0 -28 0 -37 -20c-4 -9 -4 -26 -4 -48v-19h-109v58 c0 12 2 47 29 73c21 21 63 38 129 38c15 0 104 1 140 -64c12 -21 12 -40 12 -49v-285c0 -28 -3 -91 15 -116c1 -3 3 -5 8 -9zM233 108v150l-58 -38c-4 -3 -9 -7 -10 -8c-15 -14 -17 -34 -17 -74c0 -38 5 -60 29 -59c17 0 30 7 43 18z"/>
<glyph glyph-name="adieresis" unicode="ä" d="M348 595h-119v124h119v-124zM165 595h-119v124h119v-124zM375 0h-125c-10 11 -12 20 -14 45c-6 -6 -11 -13 -18 -19c-13 -13 -38 -37 -85 -37c-10 0 -38 1 -62 19c-42 31 -39 92 -39 137c0 37 -2 75 24 105c14 17 34 28 54 38l124 62v30c0 30 -3 45 -16 54 c-5 3 -13 7 -26 7c-5 0 -28 0 -37 -20c-4 -9 -4 -26 -4 -48v-19h-109v58c0 12 2 47 29 73c21 21 63 38 129 38c15 0 104 1 140 -64c12 -21 12 -40 12 -49v-285c0 -28 -3 -91 15 -116c1 -3 3 -5 8 -9zM233 108v150l-58 -38c-4 -3 -9 -7 -10 -8c-15 -14 -17 -34 -17 -74 c0 -38 5 -60 29 -59c17 0 30 7 43 18z"/>
<glyph glyph-name="aring" unicode="å" d="M292 661c0 -48 -40 -89 -90 -89c-49 0 -89 41 -89 90s40 89 90 89s89 -40 89 -90zM375 0h-125c-10 11 -12 20 -14 45c-6 -6 -11 -13 -18 -19c-13 -13 -38 -37 -85 -37c-10 0 -38 1 -62 19c-42 31 -39 92 -39 137c0 37 -2 75 24 105c14 17 34 28 54 38l124 62v30 c0 30 -3 45 -16 54c-5 3 -13 7 -26 7c-5 0 -28 0 -37 -20c-4 -9 -4 -26 -4 -48v-19h-109v58c0 12 2 47 29 73c21 21 63 38 129 38c15 0 104 1 140 -64c12 -21 12 -40 12 -49v-285c0 -28 -3 -91 15 -116c1 -3 3 -5 8 -9zM243 660c0 24 -19 41 -41 41s-41 -18 -41 -41 c0 -22 19 -41 42 -41c22 0 40 19 40 41zM233 108v150l-58 -38c-4 -3 -9 -7 -10 -8c-15 -14 -17 -34 -17 -74c0 -38 5 -60 29 -59c17 0 30 7 43 18z"/>
<glyph glyph-name="ae" unicode="æ" horiz-adv-x="604" d="M570 229h-212v-91c0 -1 -1 -17 1 -26c4 -13 15 -30 45 -30c14 0 30 4 38 17c8 11 8 26 8 38v33h119v-35c0 -50 -13 -93 -52 -119c-21 -14 -53 -27 -108 -27c-54 0 -80 13 -124 41c-20 -12 -64 -40 -128 -40c-13 0 -101 0 -120 73c-6 25 -6 69 -6 94c0 28 1 58 17 82 c21 31 73 52 77 54l114 47v43c0 16 -3 30 -17 39c-8 6 -18 8 -27 8c-45 0 -46 -37 -46 -50v-31h-107v56c0 13 0 51 29 80c28 28 73 37 110 37c27 0 60 -5 85 -14c8 -3 18 -6 35 -15c8 4 15 9 22 12c25 12 69 17 95 17c23 0 112 -6 142 -87c8 -22 10 -45 10 -52v-154z M449 309v64c0 19 0 36 -17 48c-8 5 -18 8 -28 8c-8 0 -33 -2 -42 -25c-3 -8 -4 -13 -4 -28v-67h91zM238 108v143c-16 -7 -33 -14 -48 -22c-51 -29 -46 -67 -46 -91c0 -8 -1 -57 43 -57c29 0 46 21 51 27z"/>
<glyph glyph-name="ccedilla" unicode="ç" d="M367 145c0 -55 -14 -118 -89 -145c-19 -7 -40 -8 -59 -10v-46c36 0 105 -5 106 -67c1 -49 -43 -73 -115 -73c-40 0 -70 6 -85 10v30c5 -1 22 -2 38 -2c15 0 47 1 48 28c2 28 -34 30 -36 31v90c-10 1 -106 6 -131 92c-6 20 -6 55 -6 56v227c0 23 4 53 14 75 c40 86 151 81 153 81c45 0 126 -13 153 -81c7 -16 9 -30 9 -62v-61h-117v62c0 3 4 58 -46 57c-57 -1 -48 -69 -48 -69v-223c0 -1 -8 -68 47 -67c32 0 46 20 46 66v59h118v-58z"/>
<glyph glyph-name="egrave" unicode="è" d="M262 574h-86l-133 132h153zM360 230h-203v-84c0 -18 0 -25 3 -34c8 -26 31 -29 41 -29c19 0 32 10 38 28c5 14 4 51 4 58h115v-41c0 -18 0 -29 -5 -46c-20 -72 -84 -92 -152 -92c-105 0 -140 52 -154 98c-7 25 -9 61 -9 67v216c0 8 1 42 13 69c25 60 91 82 151 82 c83 0 129 -42 144 -73c9 -18 14 -34 14 -73v-146zM242 314v63c0 11 2 51 -41 51s-44 -38 -44 -51v-63h85z"/>
<glyph glyph-name="eacute" unicode="é" d="M344 706l-133 -132h-87l67 132h153zM360 230h-203v-84c0 -18 0 -25 3 -34c8 -26 31 -29 41 -29c19 0 32 10 38 28c5 14 4 51 4 58h115v-41c0 -18 0 -29 -5 -46c-20 -72 -84 -92 -152 -92c-105 0 -140 52 -154 98c-7 25 -9 61 -9 67v216c0 8 1 42 13 69 c25 60 91 82 151 82c83 0 129 -42 144 -73c9 -18 14 -34 14 -73v-146zM242 314v63c0 11 2 51 -41 51s-44 -38 -44 -51v-63h85z"/>
<glyph glyph-name="ecircumflex" unicode="ê" d="M347 574h-105l-44 73l-48 -73h-104l86 132h129zM360 230h-203v-84c0 -18 0 -25 3 -34c8 -26 31 -29 41 -29c19 0 32 10 38 28c5 14 4 51 4 58h115v-41c0 -18 0 -29 -5 -46c-20 -72 -84 -92 -152 -92c-105 0 -140 52 -154 98c-7 25 -9 61 -9 67v216c0 8 1 42 13 69 c25 60 91 82 151 82c83 0 129 -42 144 -73c9 -18 14 -34 14 -73v-146zM242 314v63c0 11 2 51 -41 51s-44 -38 -44 -51v-63h85z"/>
<glyph glyph-name="edieresis" unicode="ë" d="M347 595h-119v124h119v-124zM164 595h-119v124h119v-124zM360 230h-203v-84c0 -18 0 -25 3 -34c8 -26 31 -29 41 -29c19 0 32 10 38 28c5 14 4 51 4 58h115v-41c0 -18 0 -29 -5 -46c-20 -72 -84 -92 -152 -92c-105 0 -140 52 -154 98c-7 25 -9 61 -9 67v216 c0 8 1 42 13 69c25 60 91 82 151 82c83 0 129 -42 144 -73c9 -18 14 -34 14 -73v-146zM242 314v63c0 11 2 51 -41 51s-44 -38 -44 -51v-63h85z"/>
<glyph glyph-name="igrave" unicode="ì" horiz-adv-x="208" d="M168 574h-86l-133 132h153zM164 0h-120v512h120v-512z"/>
<glyph glyph-name="iacute" unicode="í" horiz-adv-x="208" d="M251 706l-133 -132h-87l67 132h153zM164 0h-120v512h120v-512z"/>
<glyph glyph-name="icircumflex" unicode="î" horiz-adv-x="208" d="M253 574h-105l-44 72l-48 -72h-104l86 132h129zM164 0h-120v512h120v-512z"/>
<glyph glyph-name="idieresis" unicode="ï" horiz-adv-x="208" d="M253 595h-119v124h119v-124zM70 595h-119v124h119v-124zM164 0h-120v512h120v-512z"/>
<glyph glyph-name="eth" unicode="ð" d="M374 635l-61 -19c43 -79 44 -147 44 -225l1 -258c0 -21 -2 -44 -12 -66c-40 -83 -144 -77 -147 -77c-4 0 -120 -10 -153 88c-5 16 -8 33 -8 67v229c0 22 1 42 9 64c23 60 83 85 126 85c39 0 54 -12 70 -33c-4 19 -8 48 -31 93l-113 -38l-23 53l103 35 c-18 18 -30 30 -50 46l99 41c21 -19 34 -33 53 -53l70 23zM240 122v264c0 25 -1 62 -42 62c-13 0 -21 -5 -26 -10c-17 -15 -15 -37 -15 -53v-260c0 -5 -3 -54 43 -53c21 1 40 12 40 50z"/>
<glyph glyph-name="ntilde" unicode="ñ" horiz-adv-x="417" d="M378 698c-1 -40 -3 -90 -40 -114c-6 -4 -23 -14 -45 -14c-26 1 -67 18 -90 28c-15 7 -32 17 -49 17c-33 -1 -41 -33 -44 -41h-65c2 40 6 77 39 105c17 15 36 21 59 21c21 0 44 -7 84 -25c26 -12 41 -19 54 -19c3 0 8 1 14 4c10 6 14 15 19 38h64zM373 0h-118v377 c0 32 -2 45 -18 55c-4 3 -11 6 -23 6c-56 0 -51 -59 -51 -69v-369h-119v512h121l-1 -37c31 30 56 47 102 47c47 0 91 -24 103 -72c4 -14 4 -23 4 -50v-400z"/>
<glyph glyph-name="ograve" unicode="ò" d="M262 574h-86l-133 132h153zM358 132c0 -36 -5 -62 -29 -90c-45 -54 -116 -52 -136 -52c-24 0 -42 3 -51 5c-20 4 -75 21 -95 81c-6 17 -9 33 -9 69v229c0 35 4 49 10 65c24 64 91 83 152 83c16 0 114 1 146 -75c8 -18 12 -34 12 -68v-247zM240 126v260c0 32 -3 46 -19 56 c-8 6 -18 6 -22 6c-13 0 -20 -4 -24 -7c-19 -14 -18 -35 -18 -56v-260c0 -9 -1 -53 41 -53c45 0 42 46 42 54z"/>
<glyph glyph-name="oacute" unicode="ó" d="M344 706l-133 -132h-87l67 132h153zM358 132c0 -36 -5 -62 -29 -90c-45 -54 -116 -52 -136 -52c-24 0 -42 3 -51 5c-20 4 -75 21 -95 81c-6 17 -9 33 -9 69v229c0 35 4 49 10 65c24 64 91 83 152 83c16 0 114 1 146 -75c8 -18 12 -34 12 -68v-247zM240 126v260 c0 32 -3 46 -19 56c-8 6 -18 6 -22 6c-13 0 -20 -4 -24 -7c-19 -14 -18 -35 -18 -56v-260c0 -9 -1 -53 41 -53c45 0 42 46 42 54z"/>
<glyph glyph-name="ocircumflex" unicode="ô" d="M347 574h-105l-44 73l-48 -73h-104l86 132h129zM358 132c0 -36 -5 -62 -29 -90c-45 -54 -116 -52 -136 -52c-24 0 -42 3 -51 5c-20 4 -75 21 -95 81c-6 17 -9 33 -9 69v229c0 35 4 49 10 65c24 64 91 83 152 83c16 0 114 1 146 -75c8 -18 12 -34 12 -68v-247zM240 126 v260c0 32 -3 46 -19 56c-8 6 -18 6 -22 6c-13 0 -20 -4 -24 -7c-19 -14 -18 -35 -18 -56v-260c0 -9 -1 -53 41 -53c45 0 42 46 42 54z"/>
<glyph glyph-name="otilde" unicode="õ" d="M367 698c-1 -40 -2 -90 -40 -114c-6 -4 -23 -14 -45 -14c-26 1 -67 18 -89 28c-15 7 -32 17 -49 17c-34 -1 -42 -33 -44 -41h-65c2 40 6 77 38 105c18 15 36 21 60 21c20 0 44 -6 84 -25c25 -11 40 -19 54 -19c3 0 7 1 13 4c11 6 15 15 19 38h64zM358 132 c0 -36 -5 -62 -29 -90c-45 -54 -116 -52 -136 -52c-24 0 -42 3 -51 5c-20 4 -75 21 -95 81c-6 17 -9 33 -9 69v229c0 35 4 49 10 65c24 64 91 83 152 83c16 0 114 1 146 -75c8 -18 12 -34 12 -68v-247zM240 126v260c0 32 -3 46 -19 56c-8 6 -18 6 -22 6c-13 0 -20 -4 -24 -7 c-19 -14 -18 -35 -18 -56v-260c0 -9 -1 -53 41 -53c45 0 42 46 42 54z"/>
<glyph glyph-name="odieresis" unicode="ö" d="M345 595h-119v124h119v-124zM162 595h-119v124h119v-124zM358 132c0 -36 -5 -62 -29 -90c-45 -54 -116 -52 -136 -52c-24 0 -42 3 -51 5c-20 4 -75 21 -95 81c-6 17 -9 33 -9 69v229c0 35 4 49 10 65c24 64 91 83 152 83c16 0 114 1 146 -75c8 -18 12 -34 12 -68v-247z M240 126v260c0 32 -3 46 -19 56c-8 6 -18 6 -22 6c-13 0 -20 -4 -24 -7c-19 -14 -18 -35 -18 -56v-260c0 -9 -1 -53 41 -53c45 0 42 46 42 54z"/>
<glyph glyph-name="divide" unicode="÷" horiz-adv-x="559" d="M336 405h-112v128h112v-128zM485 248h-411v101h411v-101zM336 64h-112v128h112v-128z"/>
<glyph glyph-name="oslash" unicode="ø" d="M379 501l-36 -52c14 -24 14 -46 14 -74v-243c0 -19 0 -64 -39 -102c-33 -33 -71 -40 -116 -40c-56 0 -80 9 -125 42l-28 -41l-40 25l36 57c-7 18 -6 26 -6 59v247c0 18 -2 71 42 107c33 28 76 36 117 36c60 0 93 -20 115 -33l25 38zM248 388l-1 11c-2 26 -19 41 -47 41 c-6 0 -18 0 -30 -8c-20 -13 -23 -36 -23 -57v-143zM246 134v165l-100 -158v-14c0 -17 3 -31 19 -41c5 -4 14 -8 30 -8c28 0 41 14 46 25c6 12 5 29 5 31z"/>
<glyph glyph-name="ugrave" unicode="ù" horiz-adv-x="417" d="M273 574h-86l-133 132h153zM373 0h-120v42c-13 -12 -52 -51 -109 -51c-10 0 -36 2 -60 18c-41 29 -40 74 -40 117v386h120v-368c0 -18 -2 -36 11 -49c9 -9 20 -13 32 -13c4 0 19 1 30 10c20 17 16 55 16 58v362h120v-512z"/>
<glyph glyph-name="uacute" unicode="ú" horiz-adv-x="417" d="M354 706l-133 -132h-87l67 132h153zM373 0h-120v42c-13 -12 -52 -51 -109 -51c-10 0 -36 2 -60 18c-41 29 -40 74 -40 117v386h120v-368c0 -18 -2 -36 11 -49c9 -9 20 -13 32 -13c4 0 19 1 30 10c20 17 16 55 16 58v362h120v-512z"/>
<glyph glyph-name="ucircumflex" unicode="û" horiz-adv-x="417" d="M358 574h-105l-44 72l-48 -72h-104l86 132h129zM373 0h-120v42c-13 -12 -52 -51 -109 -51c-10 0 -36 2 -60 18c-41 29 -40 74 -40 117v386h120v-368c0 -18 -2 -36 11 -49c9 -9 20 -13 32 -13c4 0 19 1 30 10c20 17 16 55 16 58v362h120v-512z"/>
<glyph glyph-name="udieresis" unicode="ü" horiz-adv-x="417" d="M355 595h-119v124h119v-124zM172 595h-119v124h119v-124zM373 0h-120v42c-13 -12 -52 -51 -109 -51c-10 0 -36 2 -60 18c-41 29 -40 74 -40 117v386h120v-368c0 -18 -2 -36 11 -49c9 -9 20 -13 32 -13c4 0 19 1 30 10c20 17 16 55 16 58v362h120v-512z"/>
<glyph glyph-name="yacute" unicode="ý" horiz-adv-x="354" d="M323 706l-133 -132h-87l67 132h153zM353 512l-117 -549c-11 -53 -23 -82 -40 -103c-19 -23 -44 -37 -103 -37c-30 0 -47 4 -77 9l18 94c8 -2 23 -7 45 -7c41 0 52 44 54 67l1 14l-133 512h118l66 -329l51 329h117z"/>
<glyph glyph-name="thorn" unicode="þ" horiz-adv-x="417" d="M379 116c0 -95 -53 -126 -106 -126c-55 0 -87 33 -110 53v-220h-119v883h119v-233c19 18 57 49 106 49c30 0 51 -10 63 -19c48 -34 47 -89 47 -128v-259zM259 140v237c0 9 1 56 -47 56c-51 0 -49 -51 -49 -59v-237c0 -42 32 -50 48 -50c49 0 48 42 48 53z"/>
<glyph glyph-name="ydieresis" unicode="ÿ" horiz-adv-x="354" d="M326 595h-119v124h119v-124zM143 595h-119v124h119v-124zM353 512l-117 -549c-11 -53 -23 -82 -40 -103c-19 -23 -44 -37 -103 -37c-30 0 -47 4 -77 9l18 94c8 -2 23 -7 45 -7c41 0 52 44 54 67l1 14l-133 512h118l66 -329l51 329h117z"/>
<glyph glyph-name="OE" unicode="Œ" horiz-adv-x="688" d="M664 0h-305l-1 31c-11 -10 -17 -14 -31 -22c-20 -11 -53 -24 -107 -24c-22 0 -136 2 -167 100c-6 20 -9 34 -9 73v366c0 13 0 26 1 39c3 61 23 109 80 137c30 15 64 21 96 21c17 0 67 -1 111 -31c13 -9 23 -20 27 -24v40h297v-109h-223v-165h211v-104h-211v-217h231v-111 zM302 171v360c0 36 -1 49 -12 66c-8 12 -21 23 -52 23c-32 0 -44 -13 -51 -25c-10 -16 -12 -30 -12 -65v-366c0 -16 1 -23 3 -31c5 -15 20 -45 61 -44c15 0 28 4 39 12c25 19 24 44 24 70z"/>
<glyph glyph-name="oe" unicode="œ" horiz-adv-x="604" d="M566 130c0 -4 0 -36 -6 -58c-25 -87 -124 -83 -143 -83c-63 0 -94 19 -118 34c-21 -13 -54 -33 -113 -33c-60 0 -118 26 -139 87c-6 16 -9 33 -9 67v219c0 32 3 49 8 64c20 64 84 95 147 95c29 0 58 -3 107 -38c17 10 61 38 120 38c57 0 114 -28 136 -84 c7 -16 10 -32 10 -65v-143h-203v-94c0 -19 1 -36 18 -47c4 -3 14 -8 28 -8c11 0 20 4 23 6c21 14 18 43 18 48l1 37h115v-42zM449 310v68c0 20 -1 37 -20 49c-4 2 -11 7 -23 7c-3 0 -13 -1 -22 -6c-20 -11 -22 -28 -22 -49v-69h87zM244 130v248c0 28 -5 39 -17 47 c-10 7 -20 7 -24 7c-9 0 -18 -2 -24 -6c-23 -15 -20 -42 -20 -48v-251c0 -3 -1 -11 2 -20c7 -26 29 -29 38 -29c5 0 13 1 23 6c14 8 22 17 22 46z"/>
<glyph glyph-name="Scaron" unicode="Š" horiz-adv-x="458" d="M379 895l-85 -133h-132l-85 133h105l45 -74l48 74h104zM424 197c0 -54 0 -77 -7 -104c-16 -57 -63 -108 -183 -108c-50 0 -103 7 -145 40c-23 18 -32 37 -37 48c-8 20 -14 33 -14 73v103h129v-82c0 -26 -2 -56 23 -72c8 -5 20 -10 40 -10c23 0 36 5 45 13 c19 15 19 46 19 94c0 9 2 41 -14 65c-10 15 -25 24 -30 28l-123 83c-27 18 -41 29 -59 58c-15 25 -25 52 -25 112c0 10 -1 60 17 97c40 86 161 86 175 86c21 0 134 0 171 -93c7 -18 11 -25 11 -59v-70h-130v72c0 21 -8 51 -58 51c-30 0 -58 -11 -58 -70c0 -3 -2 -45 14 -68 c4 -6 13 -13 27 -23l126 -87c9 -6 37 -27 58 -55c31 -41 28 -72 28 -122z"/>
<glyph glyph-name="scaron" unicode="š" horiz-adv-x="375" d="M337 706l-85 -132h-132l-85 132h105l45 -73l48 73h104zM341 148c0 -39 0 -79 -27 -112c-22 -27 -58 -46 -131 -46c-57 0 -120 11 -145 71c-11 26 -11 57 -11 66v53h110v-40c0 -17 1 -23 3 -32c2 -12 12 -33 43 -33c4 0 17 0 27 7c10 6 20 22 20 49c0 37 -6 45 -35 66 l-100 71c-48 34 -61 64 -61 123c1 102 63 131 155 131c75 0 116 -26 132 -55c12 -20 14 -41 14 -62v-57h-103v37c0 8 2 56 -44 56c-5 0 -12 0 -22 -5c-15 -9 -19 -25 -19 -41c0 -30 11 -40 34 -56l110 -77c10 -7 22 -20 31 -31c12 -17 19 -40 19 -83z"/>
<glyph glyph-name="Ydieresis" unicode="Ÿ" horiz-adv-x="417" d="M369 762h-116v121h116v-121zM169 762h-117v121h117v-121zM416 706l-141 -497v-209h-133v218l-141 488h137l72 -356l69 356h137z"/>
<glyph glyph-name="florin" unicode="ƒ" horiz-adv-x="354" d="M323 673l-11 -98c-10 1 -16 2 -26 2c-31 0 -34 -28 -35 -36l-3 -29h52l-9 -79h-53l-56 -489c-11 -94 -76 -106 -146 -106c-15 0 -26 1 -42 2l12 97c9 -1 16 -1 25 -1c31 0 35 28 36 35l52 462h-52l8 79h54l6 56c2 18 9 82 82 101c15 4 49 5 64 5c16 0 27 -1 42 -1z"/>
<glyph glyph-name="circumflex" unicode="ˆ" horiz-adv-x="250" d="M276 574h-105l-44 73l-48 -73h-105l86 132h129z"/>
<glyph glyph-name="tilde" unicode="˜" horiz-adv-x="250" d="M291 697c-1 -40 -2 -89 -39 -113c-6 -4 -24 -14 -46 -14c-26 1 -67 18 -89 28c-15 7 -32 17 -49 17c-33 -1 -41 -33 -44 -41h-65c2 40 6 77 39 105c17 15 36 21 59 21c21 0 44 -6 84 -25c25 -11 41 -19 54 -19c3 0 7 1 13 4c11 6 15 15 19 38z"/>
<glyph glyph-name="endash" unicode="–" horiz-adv-x="421" d="M388 243h-355v98h355v-98z"/>
<glyph glyph-name="emdash" unicode="—" horiz-adv-x="626" d="M593 242h-560v99h560v-99z"/>
<glyph glyph-name="quoteleft" unicode="‘" horiz-adv-x="187" d="M152 438h-118v134l75 134h43l-61 -134h61v-134z"/>
<glyph glyph-name="quoteright" unicode="’" horiz-adv-x="187" d="M150 573l-80 -135h-46l70 135h-62v133h118v-133z"/>
<glyph glyph-name="quotesinglbase" unicode="‚" horiz-adv-x="187" d="M153 0l-83 -135h-44l68 135h-58v129h117v-129z"/>
<glyph glyph-name="quotedblleft" unicode="“" horiz-adv-x="375" d="M343 706l-68 -136h61v-130h-120v130l80 136h47zM163 706l-73 -136h62v-130h-118v130l83 136h46z"/>
<glyph glyph-name="quotedblright" unicode="”" horiz-adv-x="375" d="M339 576l-84 -136h-46l74 136h-62v130h118v-130zM157 576l-80 -136h-47l68 136h-62v130h121v-130z"/>
<glyph glyph-name="quotedblbase" unicode="„" horiz-adv-x="375" d="M337 0l-73 -137h-45l64 137h-64v130h118v-130zM155 0l-69 -137h-43l58 137h-63v130h117v-130z"/>
<glyph glyph-name="dagger" unicode="†" horiz-adv-x="437" d="M417 423h-139v-423h-119v423h-136v113h136v170h119v-170h139v-113z"/>
<glyph glyph-name="daggerdbl" unicode="‡" horiz-adv-x="437" d="M418 142h-140v-142h-116v142h-139v108h139v209h-139v109h139v138h116v-138h140v-109h-140v-209h140v-108z"/>
<glyph glyph-name="bullet" unicode="•" horiz-adv-x="333" d="M282 214h-231v276h231v-276z"/>
<glyph glyph-name="ellipsis" unicode="…" horiz-adv-x="1000" d="M886 0h-106v125h106v-125zM553 0h-106v125h106v-125zM220 0h-107v125h107v-125z"/>
<glyph glyph-name="perthousand" unicode="‰" horiz-adv-x="1000" d="M974 102c0 -48 -22 -109 -121 -108c-104 1 -119 59 -119 110v226c0 1 -1 36 8 56c22 52 76 61 111 61c37 0 94 -8 115 -61c5 -12 6 -24 6 -49v-235zM683 102c0 -48 -23 -109 -121 -108c-104 1 -120 59 -120 110v226c0 1 -1 36 8 56c22 52 77 61 111 61 c38 0 94 -8 115 -61c5 -12 7 -24 7 -49v-235zM519 692l-265 -737l-64 22l266 738zM266 326c0 -48 -22 -109 -121 -108c-104 1 -119 57 -119 110v225c0 4 -1 36 8 57c23 52 75 61 111 61c35 0 90 -8 113 -57c5 -11 8 -28 8 -53v-235zM894 102v236c0 30 -3 46 -39 47 c-33 0 -41 -16 -41 -44v-245c0 -17 3 -38 40 -38c43 0 40 31 40 44zM602 102v236c0 30 -3 46 -39 47c-33 0 -40 -16 -40 -44v-245c0 -17 2 -38 40 -38c42 0 39 31 39 44zM185 325v237c0 15 6 46 -38 47s-41 -30 -41 -44v-245c0 -17 2 -38 40 -38c42 0 39 30 39 43z"/>
<glyph glyph-name="guilsinglleft" unicode="‹" horiz-adv-x="167" d="M132 127l-101 93v92l101 97v-97l-39 -45l39 -40v-100z"/>
<glyph glyph-name="guilsinglright" unicode="›" horiz-adv-x="167" d="M136 221l-102 -94v97l43 45l-43 42v98l102 -94v-94z"/>
<glyph glyph-name="Euro" unicode="€" horiz-adv-x="481" d="M445 667l-26 -109c-34 31 -63 44 -109 44c-81 0 -87 -49 -87 -119v-47h167l-15 -67h-152v-49h139l-14 -67h-125v-63c0 -67 16 -102 90 -102c57 0 89 16 131 54v-124c-48 -26 -108 -33 -162 -33c-183 0 -190 100 -190 237v31h-59l14 67h45v48h-61l15 68h46v49 c0 63 -2 125 49 170c43 37 100 46 155 46c54 0 101 -8 149 -34z"/>
<glyph glyph-name="trademark" unicode="™" horiz-adv-x="627" d="M580 374h-71l1 253l-52 -253h-63l-57 257l4 -257h-73v332h115l42 -195l40 195h114v-332zM240 638h-73v-264h-81v264h-77v68h231v-68z"/>
</font>
</defs>
</svg>
